<svg width="134" height="35" fill="none" xmlns="http://www.w3.org/2000/svg"><path d="M5.04 13.65a7.886 7.886 0 0 1 2.664-2.827c1.152-.725 2.46-1.087 3.924-1.087 1.704 0 3.24.507 4.608 1.522 1.392 1.014 2.484 2.464 3.276 4.348.816 1.855 1.224 4.014 1.224 6.478 0 2.464-.408 4.652-1.224 6.565-.792 1.884-1.884 3.348-3.276 4.391-1.368 1.044-2.904 1.566-4.608 1.566-1.488 0-2.796-.348-3.924-1.044A8.457 8.457 0 0 1 5.04 30.78v3.434H0V2.04h5.04v11.61Zm10.548 8.434c0-1.45-.252-2.696-.756-3.74-.48-1.072-1.128-1.883-1.944-2.434-.788-.55-1.682-.835-2.592-.826-.912 0-1.776.29-2.592.87-.792.55-1.44 1.362-1.944 2.434-.48 1.073-.72 2.334-.72 3.783 0 1.45.24 2.71.72 3.782.504 1.073 1.152 1.899 1.944 2.479.816.55 1.68.826 2.592.826.936 0 1.8-.29 2.592-.87.816-.58 1.464-1.406 1.944-2.478.504-1.073.756-2.348.756-3.826ZM26.954 7.258c-.888 0-1.632-.333-2.232-1-.576-.696-.864-1.55-.864-2.565s.288-1.855.864-2.522c.6-.696 1.344-1.044 2.232-1.044.888 0 1.62.348 2.196 1.044.6.667.9 1.507.9 2.522 0 1.014-.3 1.87-.9 2.565-.576.667-1.308 1-2.196 1Zm2.484 2.87v24.086h-5.04V10.127h5.04Zm16.788 24.086-6.768-10.26v10.26h-5.04V2.04h5.04v18.305l6.696-10.218h6.552l-8.784 12.087 8.856 12h-6.552Zm6.919-12.043c0-2.493.42-4.667 1.26-6.522.84-1.884 2.004-3.333 3.492-4.348 1.488-1.043 3.192-1.565 5.112-1.565 2.472 0 4.512.754 6.12 2.261 1.632 1.478 2.724 3.565 3.276 6.26H66.97c-.288-1.043-.78-1.854-1.476-2.434-.672-.609-1.512-.913-2.52-.913-1.44 0-2.58.638-3.42 1.913-.84 1.246-1.26 3.029-1.26 5.348 0 2.29.42 4.072 1.26 5.348.84 1.246 1.98 1.87 3.42 1.87 2.04 0 3.372-1.102 3.996-3.305h5.436c-.552 2.608-1.644 4.681-3.276 6.217-1.632 1.536-3.672 2.305-6.12 2.305-1.92 0-3.624-.508-5.112-1.522-1.476-1.029-2.686-2.535-3.492-4.348-.84-1.884-1.261-4.072-1.261-6.565Zm26.993-8.304c.618-1.24 1.485-2.272 2.52-3 1.056-.725 2.256-1.087 3.6-1.087v6.39h-1.332c-1.584 0-2.784.45-3.6 1.349-.792.898-1.188 2.463-1.188 4.695v12h-5.04V10.127h5.04v3.74Zm21.574 16.912c-.552 1.102-1.452 2.03-2.7 2.783a7.895 7.895 0 0 1-4.032 1.087c-1.248 0-2.376-.304-3.384-.913a6.445 6.445 0 0 1-2.376-2.522c-.576-1.072-.864-2.304-.864-3.695 0-2.232.684-4.058 2.052-5.479 1.392-1.42 3.468-2.13 6.228-2.13h5.076c-.048-1.536-.42-2.754-1.116-3.652-.672-.928-1.608-1.391-2.808-1.391-1.056 0-1.932.347-2.628 1.043-.696.667-1.14 1.609-1.332 2.826h-5.04c.24-1.74.756-3.29 1.548-4.652.809-1.384 1.9-2.492 3.168-3.217 1.32-.783 2.796-1.174 4.428-1.174 1.68 0 3.192.42 4.536 1.26 1.335.804 2.448 2.057 3.204 3.61.768 1.564 1.152 3.405 1.152 5.52v14.131h-5.112V30.78Zm-5.256-1.043c.84 0 1.656-.217 2.448-.652.816-.435 1.488-1.087 2.016-1.957.528-.87.792-1.898.792-3.087v-.174h-4.788c-1.152 0-2.016.276-2.592.827-.552.55-.828 1.275-.828 2.173 0 .87.252 1.566.756 2.087.528.522 1.26.783 2.196.783Zm20.997-14.609v19.087h-5.112V15.127h-2.268v-5h2.268V8.91c0-2.956.696-5.13 2.088-6.522 1.392-1.391 3.492-2.043 6.3-1.956v5.13c-1.224-.029-2.076.218-2.556.74-.48.521-.72 1.463-.72 2.825v1h6.55V4.171h5.076v5.956h4.464v5h-4.464V26.78c0 .812.156 1.406.468 1.783.336.348.888.522 1.656.522h2.34v5.13h-3.168c-4.248 0-6.372-2.492-6.372-7.478V15.127h-6.55Z" fill="#fff"/></svg>