<svg width="32" height="32" fill="none" xmlns="http://www.w3.org/2000/svg"><g clip-path="url(#a)"><circle cx="16" cy="16" r="16" fill="#fff"/><path d="M23.583 13.09h-.888l-1.842-5.53a2.359 2.359 0 0 0-.793-1.13A2.053 2.053 0 0 0 18.817 6h-1.734C16.488 6 16 6.532 16 7.182c0 .65.488 1.182 1.083 1.182h1.734l1.581 4.727h-5.21l-.39-1.182h.097c.596 0 1.083-.532 1.083-1.182 0-.65-.487-1.182-1.083-1.182h-3.228c-.596 0-1.084.532-1.084 1.182 0 .65.488 1.182 1.084 1.182h.812l1.972 5.91h-.726c-.477-2.636-2.502-4.586-5.037-4.716C5.654 12.937 3 15.69 3 19c0 3.31 2.383 5.91 5.417 5.91 2.665 0 4.82-1.998 5.308-4.728h4.55c.477 2.635 2.503 4.585 5.038 4.715C26.346 25.051 29 22.31 29 18.988c0-3.297-2.383-5.897-5.417-5.897ZM9.5 20.183h1.972c-.455 1.454-1.734 2.458-3.272 2.352-1.614-.107-2.957-1.596-3.033-3.368-.076-2.069 1.376-3.712 3.25-3.712 1.44 0 2.621.982 3.055 2.364H9.5c-.596 0-1.083.532-1.083 1.182 0 .65.487 1.182 1.083 1.182Zm8.775-2.364h-1.517l-.79-2.364h3.282a5.849 5.849 0 0 0-.975 2.364Zm5.178 4.727c-1.668-.07-3.076-1.619-3.12-3.45-.021-1.135.423-2.128 1.138-2.79l.671 2.01c.206.614.824.933 1.387.709.564-.225.856-.899.65-1.513l-.682-2.045.01-.011c.435-.017.868.063 1.273.235a3.2 3.2 0 0 1 1.085.762c.31.331.557.728.723 1.166.167.438.25.908.245 1.382 0 2.033-1.495 3.616-3.38 3.546Z" fill="url(#b)"/></g><defs><linearGradient id="b" x1="16" y1="6" x2="16" y2="24.909" gradientUnits="userSpaceOnUse"><stop stop-color="#E8AC14"/><stop offset="1" stop-color="#EE8B34"/></linearGradient><clipPath id="a"><path fill="#fff" d="M0 0h32v32H0z"/></clipPath></defs></svg>